<?xml version="1.0" encoding="utf-8"?>
<!-- Generator: Adobe Illustrator 17.1.0, SVG Export Plug-In . SVG Version: 6.00 Build 0)  -->
<!DOCTYPE svg PUBLIC "-//W3C//DTD SVG 1.1//EN" "http://www.w3.org/Graphics/SVG/1.1/DTD/svg11.dtd">
<svg version="1.1" id="Layer_1" xmlns="http://www.w3.org/2000/svg" xmlns:xlink="http://www.w3.org/1999/xlink" x="0px" y="0px"
	 viewBox="0 0 400 400" enable-background="new 0 0 400 400" height="500px" xml:space="preserve">
<g id="Layer_4" display="none">
	
		<image display="inline" overflow="visible" enable-background="new    " width="1440" height="901" xlink:href="../ressources/BG.jpg"  transform="matrix(0.4565 0 0 0.4565 -125.7019 -8.1752)">
	</image>
</g>
<!-- <g id="goutte_fond">
</g> -->
<g id="traits_separation">
	<line fill="none" stroke="#53BBE4" stroke-miterlimit="10" x1="202.6" y1="220.3" x2="61.3" y2="174.5"/>
	<line fill="none" stroke="#53BBE4" stroke-miterlimit="10" x1="202.6" y1="220.3" x2="115.3" y2="340.5"/>
	<line fill="none" stroke="#53BBE4" stroke-miterlimit="10" x1="202.6" y1="220.3" x2="289.8" y2="340.7"/>
	<line fill="none" stroke="#53BBE4" stroke-miterlimit="10" x1="202.6" y1="220.2" x2="344.1" y2="174.8"/>
	<path opacity="0.16" fill="#33A4D8" enable-background="new    " d="M312.3,191.7C288.6,133.7,203,71.5,203,71.5s-0.2,0.1-0.6,0.5
		c-7.5,5.5-86.2,64.6-108.7,119.7c-3.8,9.3-6.1,18.5-6.1,27.4c0,40.1,20.4,75.4,51.5,96.1l0,0c18.3,12.1,40.2,19.3,63.8,19.3
		c23.5,0,45.4-7,63.6-19.1l0,0c31.2-20.7,51.7-56.1,51.7-96.3C318.3,210.2,316.2,201.1,312.3,191.7z"/>
	<path fill="none" stroke="#53BBE4" stroke-miterlimit="10" d="M311.8,191.7c-23.7-58-109.3-120.2-109.3-120.2s-0.2,0.1-0.6,0.5
		c-7.5,5.5-86.2,64.6-108.7,119.7c-3.8,9.3-6.1,18.5-6.1,27.4c0,40.1,20.4,75.4,51.5,96.1l0,0c18.3,12.1,40.2,19.3,63.8,19.3
		c23.5,0,45.4-7,63.6-19.1l0,0c31.2-20.7,51.7-56.1,51.7-96.3C317.9,210.2,315.7,201.1,311.8,191.7z"/>
	<line fill="none" stroke="#53BBE4" stroke-miterlimit="10" x1="202.5" y1="220.2" x2="202.5" y2="45.5"/>
</g>
<g id="goutte_decoupee">
	<g>
		
		<linearGradient id="SVGID_1_" gradientUnits="userSpaceOnUse" x1="473.9116" y1="-375.0659" x2="626.3744" y2="-375.0659" gradientTransform="matrix(0.5404 0 0 -0.5404 -136.0031 35.312)">
			<stop  offset="0" style="stop-color:#23579D"/>
			<stop  offset="0.2105" style="stop-color:#215395"/>
			<stop  offset="0.5302" style="stop-color:#1D4780"/>
			<stop  offset="0.9176" style="stop-color:#15345E"/>
			<stop  offset="1" style="stop-color:#132F56"/>
		</linearGradient>
		<path fill="url(#SVGID_1_)" d="M124.4,193.9c-2.7,6.7-4.3,13.2-4.3,19.6c0,28.6,14.6,53.9,36.8,68.6l45.6-62.8L124.4,193.9z"/>
		
			<linearGradient id="SVGID_2_" gradientUnits="userSpaceOnUse" x1="653.4573" y1="-313.3638" x2="545.3168" y2="-205.2236" gradientTransform="matrix(0.5404 0 0 -0.5404 -136.0031 35.312)">
			<stop  offset="0" style="stop-color:#04304C"/>
			<stop  offset="1" style="stop-color:#0B74B5"/>
		</linearGradient>
		<path fill="url(#SVGID_2_)" d="M202.5,108.1c-5.5,4.1-61.7,45.9-78.1,85.8l78.1,25.4V108.1z"/>
		
			<linearGradient id="SVGID_3_" gradientUnits="userSpaceOnUse" x1="708.3583" y1="-205.1227" x2="599.7043" y2="-313.7766" gradientTransform="matrix(0.5404 0 0 -0.5404 -136.0031 35.312)">
			<stop  offset="0" style="stop-color:#188DD6"/>
			<stop  offset="1" style="stop-color:#0B466B"/>
		</linearGradient>
		<path fill="url(#SVGID_3_)" d="M202.5,219.3l79-25.4c-16.9-41.5-79-85.9-79-85.9V219.3z"/>
		
			<linearGradient id="SVGID_4_" gradientUnits="userSpaceOnUse" x1="626.3744" y1="-375.1527" x2="778.8373" y2="-375.1527" gradientTransform="matrix(0.5404 0 0 -0.5404 -136.0031 35.312)">
			<stop  offset="0" style="stop-color:#063676"/>
			<stop  offset="1" style="stop-color:#1072F8"/>
		</linearGradient>
		<path fill="url(#SVGID_4_)" d="M284.9,213.4c0-6.3-0.6-12.9-3.4-19.5l-79,25.4l45.4,62.9C270.2,267.4,284.9,242.2,284.9,213.4z"/>
		
			<linearGradient id="SVGID_5_" gradientUnits="userSpaceOnUse" x1="626.2007" y1="-482.1374" x2="626.2007" y2="-340.445" gradientTransform="matrix(0.5404 0 0 -0.5404 -136.0031 35.312)">
			<stop  offset="0" style="stop-color:#189EF2"/>
			<stop  offset="1" style="stop-color:#0035CE"/>
		</linearGradient>
		<path fill="url(#SVGID_5_)" d="M156.9,282.1c13.1,8.7,28.7,13.8,45.6,13.8c16.8,0,32.4-5,45.4-13.7
			c-15.2-21.1-45.6-63.1-45.4-62.9L156.9,282.1z"/>
	</g>
</g>
<g id="traits_norme">
	<path fill="#FFFF55" d="M281.8,194.3c3,7.2,3.4,14.2,3.4,19.4c0,7.5-1,14.8-3,21.9h1.5c1.9-7,2.9-14.4,2.9-21.9
		c0-5.4-0.4-12.6-3.5-20c-3.9-9.7-10.4-19.6-17.8-28.9h-1.8C271,174.4,277.7,184.4,281.8,194.3z"/>
	<path fill="#FFFF55" d="M120.1,213.9c0-6,1.5-12.5,4.3-19.5c3.8-9.2,9.8-19,18-29.4h-1.8c-8,10.2-13.8,19.9-17.6,28.9
		c-2.9,7.2-4.4,13.9-4.4,20c0,7.5,1,14.8,2.9,21.8h1.5C121.1,228.6,120.1,221.3,120.1,213.9z"/>
	<path fill="#FFFF55" d="M167.7,137.7c8.9-8.5,17.5-15.7,24-21v-1.8c-6.7,5.4-15.6,13-25,21.8c-5.1,4.8-9.7,9.5-13.9,14.1h1.9
		C158.7,146.4,163.1,142.1,167.7,137.7z"/>
	<path fill="#FFFF55" d="M248.7,281.9l-1.2,0.8c-10.8,7-23,11.4-35.7,12.8v1.5c13.1-1.4,25.5-5.9,36.5-13.1l0,0l0.6-0.4l0,0l0.6-0.4
		l0,0c12.6-8.5,22.5-20.2,28.9-33.5h-1.6C270.5,262.4,261,273.6,248.7,281.9z"/>
	<path fill="#FFFF55" d="M235.6,135.5c4.8,4.5,10.1,9.6,15.4,15.2h2c-5.6-6-11.2-11.5-16.4-16.2c-8.5-7.9-16.6-14.6-22.7-19.4v1.8
		C219.8,121.6,227.5,128,235.6,135.5z"/>
	<path fill="#FFFF55" d="M157,282.2l-0.5-0.3c-12.3-8.3-21.9-19.5-28.1-32.3h-1.6c6.4,13.5,16.5,25.3,29.3,33.8l0.6,0.4l0,0
		c11.1,7.2,23.7,11.7,36.7,13.1v-1.4C180.5,294,168,289.5,157,282.2z"/>
</g>
<g id="sauvegarde" display="none">
</g>
<g id="normes">
	<g>
		<g>
			<text transform="matrix(1 0 0 1 140.3115 160.873)" fill="#FFFFFF" font-family="'DINCond-Bold'" font-size="7.23">&lt; 0,04</text>
		</g>
	</g>
	<g>
		<g>
			<text transform="matrix(1 0 0 1 251.8923 160.8727)" fill="#FFFFFF" font-family="'DINCond-Bold'" font-size="7.23">0,10</text>
		</g>
	</g>
	<g>
		<g>
			<text transform="matrix(1 0 0 1 258.9549 243.8983)" fill="#FFFFFF" font-family="'MyriadPro-Regular'" font-size="7.23">≥</text>
			<text transform="matrix(1 0 0 1 263.2743 243.8983)" fill="#FFFFFF" font-family="'DINCond-Bold'" font-size="7.23"> 180 et </text>
			<text transform="matrix(1 0 0 1 280.6931 243.8983)" fill="#FFFFFF" font-family="'MyriadPro-Regular'" font-size="7.23">≤</text>
			<text transform="matrix(1 0 0 1 284.9649 243.8983)" fill="#FFFFFF" font-family="'DINCond-Bold'" font-size="7.23"> 1000</text>
		</g>
	</g>
	<g>
		<g>
			<text transform="matrix(1 0 0 1 109.4267 243.8983)" fill="#FFFFFF" font-family="'MyriadPro-Regular'" font-size="7.23">≥</text>
			<text transform="matrix(1 0 0 1 113.7461 243.8983)" fill="#FFFFFF" font-family="'DINCond-Bold'" font-size="7.23"> 6,5 et </text>
			<text transform="matrix(1 0 0 1 129.8962 243.8983)" fill="#FFFFFF" font-family="'MyriadPro-Regular'" font-size="7.23">≤</text>
			<text transform="matrix(1 0 0 1 134.2155 243.8983)" fill="#FFFFFF" font-family="'DINCond-Bold'" font-size="7.23"> 9</text>
		</g>
	</g>
	<g>
		<g>
			<text transform="matrix(1 0 0 1 199.2733 299.4148)" fill="#FFFFFF" font-family="'DINCond-Bold'" font-size="7.23">50</text>
		</g>
	</g>
	<g>
		<g>
			<text transform="matrix(1 0 0 1 193.9362 113.4081)" fill="#FFFF55" font-family="'DINCond-Bold'" font-size="7.23">NORME</text>
		</g>
	</g>
</g>
</svg>
