<?xml version="1.0" encoding="utf-8"?>
<!-- Generator: Adobe Illustrator 17.0.0, SVG Export Plug-In . SVG Version: 6.00 Build 0)  -->
<!DOCTYPE svg PUBLIC "-//W3C//DTD SVG 1.1//EN" "http://www.w3.org/Graphics/SVG/1.1/DTD/svg11.dtd">
<svg version="1.1" id="goutte" x="0px" y="0px"
	 width="300px" height="360px" viewBox="0 0 305 347.5" enable-background="new 0 0 305 347.5" xml:space="preserve">
	<g>
		<path fill="#A2D6DD" d="M7.973,158.832C2.931,171.154,0,183.332,0,195c0,53.004,27.046,99.685,68.085,127.014L152.5,205.839
			L7.973,158.832z"/>
		<path fill="#A2D6DD" d="M151.725,0.569C141.76,7.927,37.817,85.908,7.973,158.832L152.5,205.839L151.725,0.569z"/>
		<path fill="#A2D6DD" d="M297.037,158.859C265.696,82.228,152.5,0,152.5,0s-0.269,0.196-0.775,0.569l0.775,205.27L297.037,158.859z"
			/>
		<path fill="#A2D6DD" d="M305,195c0-11.66-2.927-23.828-7.963-36.141L152.5,205.839l84.069,116.403
			C277.801,294.945,305,248.153,305,195z"/>
		<path fill="#A2D6DD" d="M68.085,322.014C92.257,338.112,121.28,347.5,152.5,347.5c31.071,0,59.966-9.301,84.069-25.258
			L152.5,205.839L68.085,322.014z"/>
	</g>
</svg>
