<?xml version="1.0" encoding="utf-8"?>
<!-- Generator: Adobe Illustrator 17.1.0, SVG Export Plug-In . SVG Version: 6.00 Build 0)  -->
<!DOCTYPE svg PUBLIC "-//W3C//DTD SVG 1.1//EN" "http://www.w3.org/Graphics/SVG/1.1/DTD/svg11.dtd">
<svg version="1.1" id="Layer_1" xmlns="http://www.w3.org/2000/svg" xmlns:xlink="http://www.w3.org/1999/xlink" x="0px" y="0px"
	 viewBox="0 140 400 115.9" enable-background="new 0 140 400 115.9" xml:space="preserve">
<g>
	
		<image overflow="visible" opacity="0.4" enable-background="new    " width="3388" height="813" xlink:href="EE1EE49C2A89CF48.png"  transform="matrix(4.583492e-02 0 0 4.566332e-02 19.9566 184.5978)">
	</image>
	<g>
		<g>
			<path fill="#1678B2" d="M32.6,185.6c0.2-0.1,0.4-0.2,0.8-0.2l0.8,0.2V213c0,5.5-2.2,8-7.4,8c-2.1,0-4.6-0.6-5.7-1.1l-0.8-0.4
				c-0.1-0.6,0.1-1.1,0.5-1.4c1.9,0.8,3.9,1.3,6,1.3c3.7,0,5.7-1.8,5.7-6.4L32.6,185.6L32.6,185.6z"/>
			<path fill="#1678B2" d="M44.3,185.5H63c0.2,0.4,0.2,1.2,0,1.5H46v14.9h14.6c0.1,0.2,0.2,0.4,0.2,0.7c0,0.2-0.1,0.5-0.2,0.8H46
				v15.4h17.6c0.1,0.2,0.2,0.5,0.2,0.7c0,0.3-0.1,0.6-0.2,0.8H44.3V185.5z"/>
			<path fill="#1678B2" d="M83.8,194.1c0.2,3.3,1.2,4.8,3.7,6.1c1,0.4,1.8,0.7,2.4,0.9c0.7,0.2,1.7,0.5,3.1,0.8
				c1.2,0.3,2.2,0.6,3,0.9c0.8,0.2,1.6,0.6,2.7,1.1c1,0.5,1.8,1.1,2.3,1.7c1.1,1.2,2,3.3,2,5.9c0,5.8-4.3,9.4-11.3,9.4
				c-3.5,0-7-0.7-8.5-1.4l-1.1-0.4c-0.1-0.6,0.1-1,0.5-1.4c2.8,1,5.8,1.5,8.9,1.5c3.1,0,5.5-0.7,7.2-2c1.8-1.3,2.6-3.3,2.6-5.7
				c0-2.6-0.8-4.4-2.8-5.6c-0.9-0.6-1.9-1-2.7-1.3c-0.8-0.3-2-0.7-3.3-1.1c-1.4-0.4-2.5-0.7-3.2-0.9c-0.7-0.2-1.6-0.6-2.7-1.1
				c-1.1-0.5-2-1.1-2.5-1.6c-1-1.2-2.1-3.2-2.1-5.8c0-5.7,4-9.2,10.9-9.2c3.1,0,6.4,0.5,7.7,0.9l1,0.3c0.1,0.6-0.2,1-0.5,1.4
				c-2.5-0.7-5.2-1-8.1-1C87,186.5,83.8,189.4,83.8,194.1z"/>
			<path fill="#1678B2" d="M133.2,209.7c0,7.2-4.4,11.3-11.2,11.3s-11.2-4.2-11.2-11.3v-24.1c0.2-0.1,0.5-0.2,0.8-0.2l0.8,0.2v24.2
				c0,6.1,3.6,9.6,9.6,9.6s9.5-3.6,9.5-9.6v-24.2c0.2-0.1,0.4-0.2,0.8-0.2l0.8,0.2L133.2,209.7L133.2,209.7z"/>
			<path fill="#1678B2" d="M143.3,185.6c0.2-0.1,0.4-0.2,0.8-0.2l0.8,0.2v34.7c-0.2,0.1-0.4,0.2-0.8,0.2l-0.8-0.2V185.6z"/>
			<path fill="#1678B2" d="M155.2,194.1c0.2,3.3,1.2,4.8,3.7,6.1c1,0.4,1.8,0.7,2.4,0.9c0.7,0.2,1.7,0.5,3.1,0.8
				c1.2,0.3,2.2,0.6,3,0.9c0.8,0.2,1.6,0.6,2.7,1.1c1,0.5,1.8,1.1,2.3,1.7c1.1,1.2,2,3.3,2,5.9c0,5.8-4.3,9.4-11.3,9.4
				c-3.5,0-7-0.7-8.5-1.4l-1.1-0.4c-0.1-0.6,0.1-1,0.5-1.4c2.8,1,5.8,1.5,8.9,1.5c3.1,0,5.5-0.7,7.2-2c1.8-1.3,2.6-3.3,2.6-5.7
				c0-2.6-0.8-4.4-2.8-5.6c-0.9-0.6-1.9-1-2.7-1.3c-0.8-0.3-2-0.7-3.3-1.1c-1.4-0.4-2.5-0.7-3.2-0.9c-0.7-0.2-1.6-0.6-2.7-1.1
				c-1.1-0.5-2-1.1-2.5-1.6c-1-1.2-2.1-3.2-2.1-5.8c0-5.7,4-9.2,10.9-9.2c3.1,0,6.4,0.5,7.7,0.9l1,0.3c0.1,0.6-0.2,1-0.5,1.4
				c-2.5-0.7-5.2-1-8.1-1C158.4,186.5,155.2,189.4,155.2,194.1z"/>
		</g>
	</g>
</g>
<g>
	
		<image overflow="visible" opacity="0.4" enable-background="new    " width="3142" height="792" xlink:href="EE1EE49C2A89CF49.png"  transform="matrix(4.578687e-02 0 0 4.565734e-02 224.4545 185.5694)">
	</image>
	<g>
		<g>
			<path fill="#1678B2" d="M237.3,215.8l0.8,2.7h0.1c0.2-0.7,0.4-1.6,0.8-2.7l10.8-29.7c0.2-0.1,0.4-0.2,0.9-0.2l0.8,0.2l-12.7,34.7
				c-0.2,0.1-0.3,0.2-0.7,0.2l-0.7-0.2l-12.7-34.7c0.2-0.1,0.4-0.2,0.8-0.2l0.8,0.2L237.3,215.8z"/>
			<path fill="#1678B2" d="M258.1,186.1c0.2-0.1,0.4-0.2,0.8-0.2l0.8,0.2v34.7c-0.2,0.1-0.4,0.2-0.8,0.2l-0.8-0.2V186.1z"/>
			<path fill="#1678B2" d="M288.9,185.9c0.1,0.2,0.2,0.4,0.2,0.7l-0.2,0.8h-10.2v33.3c-0.2,0.1-0.4,0.2-0.8,0.2l-0.8-0.2v-33.3
				h-10.4c-0.1-0.2-0.2-0.4-0.2-0.8l0.2-0.7H288.9z"/>
			<path fill="#1678B2" d="M311.6,210.3h-17.2l-4.2,10.5c-0.2,0.1-0.4,0.2-0.9,0.2l-0.8-0.2l13.7-34.7c0.2-0.1,0.3-0.2,0.7-0.2
				l0.7,0.2l13.7,34.7c-0.2,0.1-0.4,0.2-0.9,0.2l-0.9-0.2L311.6,210.3z M295,208.8H311l-7.3-18.5l-0.6-1.9H303
				c-0.2,0.4-0.3,1.1-0.6,1.9L295,208.8z"/>
			<path fill="#1678B2" d="M323.7,186.1c0.2-0.1,0.5-0.2,0.8-0.2l0.8,0.2v33.3h16.1c0.1,0.2,0.2,0.4,0.2,0.8l-0.2,0.8h-17.7
				L323.7,186.1L323.7,186.1z"/>
			<path fill="#1678B2" d="M348.2,185.9h18.7c0.2,0.4,0.2,1.2,0,1.5h-17.1v14.9h14.6c0.1,0.2,0.2,0.4,0.2,0.7c0,0.2-0.1,0.5-0.2,0.8
				h-14.6v15.4h17.6c0.1,0.2,0.2,0.5,0.2,0.7c0,0.3-0.1,0.6-0.2,0.8h-19.2V185.9z"/>
		</g>
	</g>
</g>
<path fill="#FFFFFF" d="M185.6,215.4c0-10.8,12.4-17.5,16.9-31.1c4.4,13.3,16.9,20.2,16.9,31.1s-7.3,16.9-16.9,16.9
	C192.9,232.3,185.6,226.2,185.6,215.4z"/>
<path opacity="0.2" fill="#FFFFFF" enable-background="new    " d="M182.2,215.5c0-13,14.8-21,20.3-37.3
	c5.2,15.9,20.3,24.3,20.3,37.3s-8.7,20.3-20.3,20.3C191,235.8,182.2,228.5,182.2,215.5z"/>
<linearGradient id="SVGID_1_" gradientUnits="userSpaceOnUse" x1="1059.4" y1="-197" x2="1059.4" y2="10.3" gradientTransform="matrix(0.1912 0 0 -0.1912 0 191.587)">
	<stop  offset="0" style="stop-color:#66CCFF"/>
	<stop  offset="0.6381" style="stop-color:#D4ECFF"/>
</linearGradient>
<path fill="url(#SVGID_1_)" d="M188.6,215.3c0-8.9,10.2-14.5,14-25.7c3.6,11,14,16.7,14,25.7c0,8.9-6,14-14,14
	S188.6,224.2,188.6,215.3z"/>
<linearGradient id="SVGID_2_" gradientUnits="userSpaceOnUse" x1="1059.3999" y1="-196.9959" x2="1059.3999" y2="-10.2532" gradientTransform="matrix(0.1912 0 0 -0.1912 0 191.587)">
	<stop  offset="0" style="stop-color:#0762AA"/>
	<stop  offset="0.5968" style="stop-color:#209ECF"/>
	<stop  offset="0.852" style="stop-color:#129ECF"/>
</linearGradient>
<path fill="url(#SVGID_2_)" d="M216.6,215.3c0-0.5,0-0.9-0.1-1.4c-5,3.9-13.3,1.1-13.3,1.1c-8.3-4.2-11.5-3.1-14.5-1.7
	c-0.1,0.7-0.2,1.3-0.2,2c0,8.9,6,14,14,14C210.6,229.3,216.6,224.2,216.6,215.3z"/>
<path fill="#FFFFFF" d="M217.9,214.2c-0.1-0.8-0.8-1.4-1.5-1.5c-1.3-0.2-2.4,0.9-2.2,2.2c0,0,0,0,0,0c-3.5,1.5-8.5,0.2-11.1-0.6
	c0-0.1,0-0.2,0-0.3c0-1-0.8-1.9-1.9-1.9c-0.7,0-1.2,0.3-1.6,0.9c-3.8-1.4-6.9-1.2-8.8-0.9c-0.3-0.4-0.9-0.7-1.5-0.7
	c-1,0-1.9,0.8-1.9,1.9c0,1,0.8,1.9,1.9,1.9c1,0,1.9-0.8,1.9-1.9c0-0.1,0-0.1,0-0.2c1.8-0.3,4.6-0.4,8.1,0.9c0,0,0,0,0,0.1
	c0,1,0.8,1.9,1.9,1.9c0.6,0,1.1-0.3,1.4-0.7c1.7,0.6,4.7,1.4,7.6,1.4c1.5,0,3-0.2,4.3-0.8c0.3,0.3,0.7,0.5,1.1,0.6
	C217,216.6,218.1,215.5,217.9,214.2z"/>
</svg>
