<svg xmlns="http://www.w3.org/2000/svg" xmlns:xlink="http://www.w3.org/1999/xlink" viewBox="20 178.3 348.4 57.5" enable-background="new 20 178.3 348.4 57.5"><image overflow="visible" opacity=".4" enable-background="new" xlink:href="EE1EE49C2A89CF48.png" transform="matrix(.046 0 0 .046 19.957 184.598)"/><path d="M32.6 185.6c.2-.1.4-.2.8-.2l.8.2v27.4c0 5.5-2.2 8-7.4 8-2.1 0-4.6-.6-5.7-1.1l-.8-.4c-.1-.6.1-1.1.5-1.4 1.9.8 3.9 1.3 6 1.3 3.7 0 5.7-1.8 5.7-6.4l.1-27.4zm11.7-.1h18.7c.2.4.2 1.2 0 1.5h-17v14.9h14.6c.1.2.2.4.2.7 0 .2-.1.5-.2.8h-14.6v15.4h17.6c.1.2.2.5.2.7 0 .3-.1.6-.2.8h-19.3v-34.8zm39.5 8.6c.2 3.3 1.2 4.8 3.7 6.1 1 .4 1.8.7 2.4.9.7.2 1.7.5 3.1.8 1.2.3 2.2.6 3 .9.8.2 1.6.6 2.7 1.1 1 .5 1.8 1.1 2.3 1.7 1.1 1.2 2 3.3 2 5.9 0 5.8-4.3 9.4-11.3 9.4-3.5 0-7-.7-8.5-1.4l-1.1-.4c-.1-.6.1-1 .5-1.4 2.8 1 5.8 1.5 8.9 1.5 3.1 0 5.5-.7 7.2-2 1.8-1.3 2.6-3.3 2.6-5.7 0-2.6-.8-4.4-2.8-5.6-.9-.6-1.9-1-2.7-1.3-.8-.3-2-.7-3.3-1.1-1.4-.4-2.5-.7-3.2-.9-.7-.2-1.6-.6-2.7-1.1-1.1-.5-2-1.1-2.5-1.6-1-1.2-2.1-3.2-2.1-5.8 0-5.7 4-9.2 10.9-9.2 3.1 0 6.4.5 7.7.9l1 .3c.1.6-.2 1-.5 1.4-2.5-.7-5.2-1-8.1-1-6 0-9.2 2.9-9.2 7.6zm49.4 15.6c0 7.2-4.4 11.3-11.2 11.3-6.8 0-11.2-4.2-11.2-11.3v-24.1c.2-.1.5-.2.8-.2l.8.2v24.2c0 6.1 3.6 9.6 9.6 9.6s9.5-3.6 9.5-9.6v-24.2c.2-.1.4-.2.8-.2l.8.2.1 24.1zm10.1-24.1c.2-.1.4-.2.8-.2l.8.2v34.7c-.2.1-.4.2-.8.2l-.8-.2v-34.7zm11.9 8.5c.2 3.3 1.2 4.8 3.7 6.1 1 .4 1.8.7 2.4.9.7.2 1.7.5 3.1.8 1.2.3 2.2.6 3 .9.8.2 1.6.6 2.7 1.1 1 .5 1.8 1.1 2.3 1.7 1.1 1.2 2 3.3 2 5.9 0 5.8-4.3 9.4-11.3 9.4-3.5 0-7-.7-8.5-1.4l-1.1-.4c-.1-.6.1-1 .5-1.4 2.8 1 5.8 1.5 8.9 1.5 3.1 0 5.5-.7 7.2-2 1.8-1.3 2.6-3.3 2.6-5.7 0-2.6-.8-4.4-2.8-5.6-.9-.6-1.9-1-2.7-1.3-.8-.3-2-.7-3.3-1.1-1.4-.4-2.5-.7-3.2-.9-.7-.2-1.6-.6-2.7-1.1-1.1-.5-2-1.1-2.5-1.6-1-1.2-2.1-3.2-2.1-5.8 0-5.7 4-9.2 10.9-9.2 3.1 0 6.4.5 7.7.9l1 .3c.1.6-.2 1-.5 1.4-2.5-.7-5.2-1-8.1-1-6 0-9.2 2.9-9.2 7.6z" fill="#1678B2"/><image overflow="visible" opacity=".4" enable-background="new" width="3142" height="792" xlink:href="EE1EE49C2A89CF49.png" transform="matrix(.046 0 0 .046 224.454 185.569)"/><path d="M237.3 215.8l.8 2.7h.1c.2-.7.4-1.6.8-2.7l10.8-29.7c.2-.1.4-.2.9-.2l.8.2-12.7 34.7c-.2.1-.3.2-.7.2l-.7-.2-12.7-34.7c.2-.1.4-.2.8-.2l.8.2 11 29.7zm20.8-29.7c.2-.1.4-.2.8-.2l.8.2v34.7c-.2.1-.4.2-.8.2l-.8-.2v-34.7zm30.8-.2c.1.2.2.4.2.7l-.2.8h-10.2v33.3c-.2.1-.4.2-.8.2l-.8-.2v-33.3h-10.4c-.1-.2-.2-.4-.2-.8l.2-.7h22.2zm22.7 24.4h-17.2l-4.2 10.5c-.2.1-.4.2-.9.2l-.8-.2 13.7-34.7c.2-.1.3-.2.7-.2l.7.2 13.7 34.7c-.2.1-.4.2-.9.2l-.9-.2-3.9-10.5zm-16.6-1.5h16l-7.3-18.5-.6-1.9h-.1c-.2.4-.3 1.1-.6 1.9l-7.4 18.5zm28.7-22.7c.2-.1.5-.2.8-.2l.8.2v33.3h16.1c.1.2.2.4.2.8l-.2.8h-17.7v-34.9zm24.5-.2h18.7c.2.4.2 1.2 0 1.5h-17.1v14.9h14.6c.1.2.2.4.2.7 0 .2-.1.5-.2.8h-14.6v15.4h17.6c.1.2.2.5.2.7 0 .3-.1.6-.2.8h-19.2v-34.8z" fill="#1678B2"/><path fill="#fff" d="M185.6 215.4c0-10.8 12.4-17.5 16.9-31.1 4.4 13.3 16.9 20.2 16.9 31.1s-7.3 16.9-16.9 16.9c-9.6 0-16.9-6.1-16.9-16.9z"/><path opacity=".2" fill="#fff" enable-background="new" d="M182.2 215.5c0-13 14.8-21 20.3-37.3 5.2 15.9 20.3 24.3 20.3 37.3s-8.7 20.3-20.3 20.3c-11.5 0-20.3-7.3-20.3-20.3z"/><linearGradient id="a" gradientUnits="userSpaceOnUse" x1="1059.4" y1="-197" x2="1059.4" y2="10.3" gradientTransform="matrix(.191 0 0 -.191 0 191.587)"><stop offset="0" stop-color="#6cf"/><stop offset=".638" stop-color="#D4ECFF"/></linearGradient><path fill="url(#a)" d="M188.6 215.3c0-8.9 10.2-14.5 14-25.7 3.6 11 14 16.7 14 25.7 0 8.9-6 14-14 14s-14-5.1-14-14z"/><linearGradient id="b" gradientUnits="userSpaceOnUse" x1="1059.4" y1="-196.996" x2="1059.4" y2="-10.253" gradientTransform="matrix(.191 0 0 -.191 0 191.587)"><stop offset="0" stop-color="#0762AA"/><stop offset=".597" stop-color="#209ECF"/><stop offset=".852" stop-color="#129ECF"/></linearGradient><path fill="url(#b)" d="M216.6 215.3c0-.5 0-.9-.1-1.4-5 3.9-13.3 1.1-13.3 1.1-8.3-4.2-11.5-3.1-14.5-1.7-.1.7-.2 1.3-.2 2 0 8.9 6 14 14 14 8.1 0 14.1-5.1 14.1-14z"/><path fill="#fff" d="M217.9 214.2c-.1-.8-.8-1.4-1.5-1.5-1.3-.2-2.4.9-2.2 2.2-3.5 1.5-8.5.2-11.1-.6v-.3c0-1-.8-1.9-1.9-1.9-.7 0-1.2.3-1.6.9-3.8-1.4-6.9-1.2-8.8-.9-.3-.4-.9-.7-1.5-.7-1 0-1.9.8-1.9 1.9 0 1 .8 1.9 1.9 1.9 1 0 1.9-.8 1.9-1.9v-.2c1.8-.3 4.6-.4 8.1.9v.1c0 1 .8 1.9 1.9 1.9.6 0 1.1-.3 1.4-.7 1.7.6 4.7 1.4 7.6 1.4 1.5 0 3-.2 4.3-.8.3.3.7.5 1.1.6 1.4.1 2.5-1 2.3-2.3z"/></svg>