<?xml version="1.0" encoding="utf-8"?>
<!-- Generator: Adobe Illustrator 17.1.0, SVG Export Plug-In . SVG Version: 6.00 Build 0)  -->
<!DOCTYPE svg PUBLIC "-//W3C//DTD SVG 1.1//EN" "http://www.w3.org/Graphics/SVG/1.1/DTD/svg11.dtd">
<svg version="1.1" id="Layer_1" xmlns="http://www.w3.org/2000/svg" xmlns:xlink="http://www.w3.org/1999/xlink" x="0px" y="0px"
	 viewBox="0 0 400 400" enable-background="new 0 0 400 400" xml:space="preserve">
	<g>
		<path fill="#78D0EA" d="M311.7,181.8c0,8.6-15.6,28.9-15.6,28.9s-15.6-20.3-15.6-28.9c0-8.6,7-15.6,15.6-15.6
			C304.7,166.3,311.7,173.2,311.7,181.8z"/>
		<g>
			<path fill="#FFFFFF" d="M298.6,190.7c-0.6,0.6-1.6,1-2.6,1s-1.9-0.3-2.6-0.9c-0.6-0.6-1-1.4-1-2.7v-0.8h2.4v1.1
				c0,1,0.5,1.4,1.2,1.4c0.4,0,0.7-0.1,0.9-0.4c0.4-0.5,0.4-1.7,0.4-3.1c0-1.3,0-2.4-0.3-2.8c-0.2-0.3-0.5-0.5-0.9-0.5
				c-0.7,0-1.2,0.5-1.2,1.4v0.3h-2.3v-9.3h6.9v2.1h-4.7v4.3c0.2-0.3,0.5-0.6,0.8-0.8c0.3-0.2,0.7-0.3,1.2-0.3c1,0,1.7,0.3,2.2,1
				c0.7,0.8,0.8,2.3,0.8,4.3C299.7,188.2,299.7,189.6,298.6,190.7z"/>
		</g>
	</g>
</svg>
