<?xml version="1.0" encoding="utf-8"?>
<!-- Generator: Adobe Illustrator 17.1.0, SVG Export Plug-In . SVG Version: 6.00 Build 0)  -->
<!DOCTYPE svg PUBLIC "-//W3C//DTD SVG 1.1//EN" "http://www.w3.org/Graphics/SVG/1.1/DTD/svg11.dtd">
<svg version="1.1" id="Layer_1" xmlns="http://www.w3.org/2000/svg" xmlns:xlink="http://www.w3.org/1999/xlink" x="0px" y="0px"
	 viewBox="0 0 400 400" enable-background="new 0 0 400 400" xml:space="preserve">
<g>
	<path fill="#78D0EA" d="M311.7,181.8c0,8.6-15.6,28.9-15.6,28.9s-15.6-20.3-15.6-28.9c0-8.6,7-15.6,15.6-15.6
		C304.7,166.3,311.7,173.2,311.7,181.8z"/>
	<g>
		<path fill="#FFFFFF" d="M298.6,190.7c-0.6,0.6-1.6,1-2.6,1s-1.9-0.3-2.6-0.9c-0.6-0.6-1-1.4-1-2.7v-0.8h2.4v1.1
			c0,1,0.5,1.4,1.2,1.4c0.4,0,0.7-0.1,0.9-0.4c0.4-0.5,0.4-1.7,0.4-3.1c0-1.3,0-2.4-0.3-2.8c-0.2-0.3-0.5-0.5-0.9-0.5
			c-0.7,0-1.2,0.5-1.2,1.4v0.3h-2.3v-9.3h6.9v2.1h-4.7v4.3c0.2-0.3,0.5-0.6,0.8-0.8c0.3-0.2,0.7-0.3,1.2-0.3c1,0,1.7,0.3,2.2,1
			c0.7,0.8,0.8,2.3,0.8,4.3C299.7,188.2,299.7,189.6,298.6,190.7z"/>
	</g>
</g>
<g>
	<path fill="#57C6F0" d="M265.1,181.8c0,8.6-15.6,28.9-15.6,28.9s-15.6-20.3-15.6-28.9c0-8.6,7-15.6,15.6-15.6
		S265.1,173.2,265.1,181.8z"/>
	<g>
		<path fill="#FFFFFF" d="M251.8,189.1v2.5h-2.4v-2.5h-4.5v-2.1l4.1-11.4h2.3l-4,11.4h2V184h2.4v2.9h1.1v2.1H251.8z"/>
	</g>
</g>
<g>
	<path fill="#53BCE6" d="M218.4,181.8c0,8.6-15.6,28.9-15.6,28.9s-15.6-20.3-15.6-28.9c0-8.6,7-15.6,15.6-15.6
		C211.5,166.3,218.4,173.2,218.4,181.8z"/>
	<g>
		<path fill="#FFFFFF" d="M205.4,190.8c-0.6,0.6-1.6,0.9-2.6,0.9c-1,0-2-0.3-2.6-0.9c-0.6-0.6-1-1.4-1-2.7v-0.9h2.4v1
			c0,0.9,0.5,1.4,1.2,1.4c0.4,0,0.7-0.2,0.9-0.4c0.3-0.4,0.4-1.4,0.4-2.4c0-1.1,0-1.9-0.4-2.3c-0.2-0.3-0.5-0.4-0.9-0.4H202v-2h0.8
			c0.3,0,0.6-0.1,0.8-0.3c0.4-0.4,0.4-1.2,0.4-2c0-0.8,0-1.5-0.3-1.9c-0.2-0.2-0.4-0.4-0.8-0.4c-0.6,0-1.1,0.4-1.1,1.3v1.1h-2.4v-1
			c0-1.2,0.4-2.1,1-2.7c0.6-0.6,1.5-0.9,2.5-0.9c1.1,0,1.9,0.3,2.5,0.9c0.7,0.7,1,1.8,1,3.3c0,1.1,0,1.9-0.4,2.6
			c-0.2,0.4-0.5,0.7-0.9,0.9c0.4,0.3,0.7,0.6,0.9,1c0.4,0.8,0.5,1.6,0.5,3C206.5,188.7,206.4,189.8,205.4,190.8z"/>
	</g>
</g>
<g>
	<path fill="#48ACDB" d="M171.8,181.8c0,8.6-15.6,28.9-15.6,28.9s-15.6-20.3-15.6-28.9c0-8.6,7-15.6,15.6-15.6
		S171.8,173.2,171.8,181.8z"/>
	<g>
		<path fill="#FFFFFF" d="M152.7,191.7v-2l4-7.8c0.4-0.7,0.7-1.7,0.7-2.9c0-0.9-0.5-1.4-1.2-1.4s-1.2,0.5-1.2,1.4v1h-2.4V179
			c0-1.3,0.4-2.1,1-2.7c0.6-0.6,1.6-0.9,2.6-0.9s1.8,0.2,2.5,0.9c0.6,0.6,1.1,1.5,1.1,2.8c0,1.2-0.4,2.5-0.9,3.5l-3.6,7h4.5v2.1
			H152.7z"/>
	</g>
</g>
<g>
	<path fill="#3F9BCF" d="M125.2,181.8c0,8.6-15.6,28.9-15.6,28.9S94,190.4,94,181.8c0-8.6,7-15.6,15.6-15.6S125.2,173.2,125.2,181.8
		z"/>
	<g>
		<path fill="#FFFFFF" d="M108.6,191.6v-13.3l-2.4,1.9v-2.7l2.4-1.9h2.4v16.1H108.6z"/>
	</g>
</g>
</svg>
