<?xml version="1.0" encoding="utf-8"?>
<!-- Generator: Adobe Illustrator 17.1.0, SVG Export Plug-In . SVG Version: 6.00 Build 0)  -->
<!DOCTYPE svg PUBLIC "-//W3C//DTD SVG 1.1//EN" "http://www.w3.org/Graphics/SVG/1.1/DTD/svg11.dtd">
<svg version="1.1" id="Layer_1" xmlns="http://www.w3.org/2000/svg" xmlns:xlink="http://www.w3.org/1999/xlink" x="0px" y="0px"
	 viewBox="0 0 101.4 101.1" enable-background="new 0 0 101.4 101.1" xml:space="preserve">
<g>
	<path fill="#0E60A1" d="M98.5,101.2H3c-1,0-2-0.5-2.5-1.4C0,98.9,0,97.9,0.4,97L48.1,1.6c0.5-1,1.5-1.6,2.6-1.6
		c1.1,0,2.1,0.6,2.6,1.6L101.1,97c0.5,0.9,0.4,2-0.1,2.9C100.5,100.7,99.5,101.2,98.5,101.2z M7.8,95.3h85.9l-43-85.8L7.8,95.3z"/>
	<g>
		<path fill="#0E60A1" d="M45,39.5c1.5-0.3,3.6-0.5,6.4-0.5c2.4,0,4.8,0.2,5.8,0.4l0.7,0.1l-1.4,31.8c-1.3,0.4-2.9,0.6-5.1,0.6
			c-1.8,0-3.8-0.3-4.5-0.5l-0.6-0.1L45,39.5z M57.5,85.8c-1.4,0.3-3.4,0.5-6,0.5c-2.3,0-4.5-0.2-5.4-0.4l-0.6-0.1V74.6
			c1.4-0.3,3.4-0.5,6-0.5c2.3,0,4.5,0.2,5.3,0.4l0.7,0.1V85.8z"/>
	</g>
</g>
</svg>
