<?xml version="1.0" encoding="utf-8"?>
<!-- Generator: Adobe Illustrator 17.1.0, SVG Export Plug-In . SVG Version: 6.00 Build 0)  -->
<!DOCTYPE svg PUBLIC "-//W3C//DTD SVG 1.1//EN" "http://www.w3.org/Graphics/SVG/1.1/DTD/svg11.dtd">
<svg version="1.1" id="goutte" xmlns="http://www.w3.org/2000/svg" xmlns:xlink="http://www.w3.org/1999/xlink" x="0px" y="0px"
	 viewBox="0 0 400 400" height="400px" enable-background="new 0 0 400 400" xml:space="preserve">
	<g id="goutte_fond">
	</g>
	<g id="traits_separation">
		<line fill="none" stroke="#53BBE4" stroke-miterlimit="10" x1="202.6" y1="220.3" x2="61.3" y2="174.5"/>
		<line fill="none" stroke="#53BBE4" stroke-miterlimit="10" x1="202.6" y1="220.3" x2="115.3" y2="340.5"/>
		<line fill="none" stroke="#53BBE4" stroke-miterlimit="10" x1="202.6" y1="220.3" x2="289.8" y2="340.7"/>
		<line fill="none" stroke="#53BBE4" stroke-miterlimit="10" x1="202.6" y1="220.2" x2="344.1" y2="174.8"/>
		<path opacity="0.16" fill="#33A4D8" enable-background="new    " d="M312.3,191.7C288.6,133.7,203,71.5,203,71.5s-0.2,0.1-0.6,0.5
			c-7.5,5.5-86.2,64.6-108.7,119.7c-3.8,9.3-6.1,18.5-6.1,27.4c0,40.1,20.4,75.4,51.5,96.1l0,0c18.3,12.1,40.2,19.3,63.8,19.3
			c23.5,0,45.4-7,63.6-19.1l0,0c31.2-20.7,51.7-56.1,51.7-96.3C318.3,210.2,316.2,201.1,312.3,191.7z"/>
		<path fill="none" stroke="#53BBE4" stroke-miterlimit="10" d="M311.8,191.7c-23.7-58-109.3-120.2-109.3-120.2s-0.2,0.1-0.6,0.5
			c-7.5,5.5-86.2,64.6-108.7,119.7c-3.8,9.3-6.1,18.5-6.1,27.4c0,40.1,20.4,75.4,51.5,96.1l0,0c18.3,12.1,40.2,19.3,63.8,19.3
			c23.5,0,45.4-7,63.6-19.1l0,0c31.2-20.7,51.7-56.1,51.7-96.3C317.9,210.2,315.7,201.1,311.8,191.7z"/>
		<line fill="none" stroke="#53BBE4" stroke-miterlimit="10" x1="202.5" y1="220.2" x2="202.5" y2="45.5"/>
	</g>
</svg>
