<?xml version="1.0" encoding="utf-8"?>
<!-- Generator: Adobe Illustrator 17.1.0, SVG Export Plug-In . SVG Version: 6.00 Build 0)  -->
<!DOCTYPE svg PUBLIC "-//W3C//DTD SVG 1.1//EN" "http://www.w3.org/Graphics/SVG/1.1/DTD/svg11.dtd">
<svg version="1.1" id="goutte" xmlns="http://www.w3.org/2000/svg" xmlns:xlink="http://www.w3.org/1999/xlink" x="0px" y="0px"
	 viewBox="0 0 400 400" height="400px" enable-background="new 0 0 400 400" xml:space="preserve">
<g id="goutte_fond">
</g>
<g id="traits_separation">
	<line fill="none" stroke="#53BBE4" stroke-miterlimit="10" x1="202.6" y1="220.3" x2="61.3" y2="174.5"/>
	<line fill="none" stroke="#53BBE4" stroke-miterlimit="10" x1="202.6" y1="220.3" x2="115.3" y2="340.5"/>
	<line fill="none" stroke="#53BBE4" stroke-miterlimit="10" x1="202.6" y1="220.3" x2="289.8" y2="340.7"/>
	<line fill="none" stroke="#53BBE4" stroke-miterlimit="10" x1="202.6" y1="220.2" x2="344.1" y2="174.8"/>
	<path opacity="0.16" fill="#33A4D8" enable-background="new    " d="M312.3,191.7C288.6,133.7,203,71.5,203,71.5s-0.2,0.1-0.6,0.5
		c-7.5,5.5-86.2,64.6-108.7,119.7c-3.8,9.3-6.1,18.5-6.1,27.4c0,40.1,20.4,75.4,51.5,96.1l0,0c18.3,12.1,40.2,19.3,63.8,19.3
		c23.5,0,45.4-7,63.6-19.1l0,0c31.2-20.7,51.7-56.1,51.7-96.3C318.3,210.2,316.2,201.1,312.3,191.7z"/>
	<path fill="none" stroke="#53BBE4" stroke-miterlimit="10" d="M311.8,191.7c-23.7-58-109.3-120.2-109.3-120.2s-0.2,0.1-0.6,0.5
		c-7.5,5.5-86.2,64.6-108.7,119.7c-3.8,9.3-6.1,18.5-6.1,27.4c0,40.1,20.4,75.4,51.5,96.1l0,0c18.3,12.1,40.2,19.3,63.8,19.3
		c23.5,0,45.4-7,63.6-19.1l0,0c31.2-20.7,51.7-56.1,51.7-96.3C317.9,210.2,315.7,201.1,311.8,191.7z"/>
	<line fill="none" stroke="#53BBE4" stroke-miterlimit="10" x1="202.5" y1="220.2" x2="202.5" y2="45.5"/>
</g>
<!-- <g id="goutte_decoupee">
	<g>
		
			<linearGradient id="SVGID_1_" gradientUnits="userSpaceOnUse" x1="473.9116" y1="-375.0659" x2="626.3744" y2="-375.0659" gradientTransform="matrix(0.5404 0 0 -0.5404 -136.0031 35.312)">
			<stop  offset="0" style="stop-color:#23579D"/>
			<stop  offset="0.2105" style="stop-color:#215395"/>
			<stop  offset="0.5302" style="stop-color:#1D4780"/>
			<stop  offset="0.9176" style="stop-color:#15345E"/>
			<stop  offset="1" style="stop-color:#132F56"/>
		</linearGradient>
		<path fill="url(#SVGID_1_)" d="M124.4,193.9c-2.7,6.7-4.3,13.2-4.3,19.6c0,28.6,14.6,53.9,36.8,68.6l45.6-62.8L124.4,193.9z"/>
		
			<linearGradient id="SVGID_2_" gradientUnits="userSpaceOnUse" x1="653.4573" y1="-313.3638" x2="545.3168" y2="-205.2236" gradientTransform="matrix(0.5404 0 0 -0.5404 -136.0031 35.312)">
			<stop  offset="0" style="stop-color:#04304C"/>
			<stop  offset="1" style="stop-color:#0B74B5"/>
		</linearGradient>
		<path fill="url(#SVGID_2_)" d="M202.5,108.1c-5.5,4.1-61.7,45.9-78.1,85.8l78.1,25.4V108.1z"/>
		
			<linearGradient id="SVGID_3_" gradientUnits="userSpaceOnUse" x1="708.3583" y1="-205.1227" x2="599.7043" y2="-313.7766" gradientTransform="matrix(0.5404 0 0 -0.5404 -136.0031 35.312)">
			<stop  offset="0" style="stop-color:#188DD6"/>
			<stop  offset="1" style="stop-color:#0B466B"/>
		</linearGradient>
		<path fill="url(#SVGID_3_)" d="M202.5,219.3l79-25.4c-16.9-41.5-79-85.9-79-85.9V219.3z"/>
		
			<linearGradient id="SVGID_4_" gradientUnits="userSpaceOnUse" x1="626.3744" y1="-375.1527" x2="778.8373" y2="-375.1527" gradientTransform="matrix(0.5404 0 0 -0.5404 -136.0031 35.312)">
			<stop  offset="0" style="stop-color:#063676"/>
			<stop  offset="1" style="stop-color:#1072F8"/>
		</linearGradient>
		<path fill="url(#SVGID_4_)" d="M284.9,213.4c0-6.3-0.6-12.9-3.4-19.5l-79,25.4l45.4,62.9C270.2,267.4,284.9,242.2,284.9,213.4z"/>
		
			<linearGradient id="SVGID_5_" gradientUnits="userSpaceOnUse" x1="626.2007" y1="-482.1374" x2="626.2007" y2="-340.445" gradientTransform="matrix(0.5404 0 0 -0.5404 -136.0031 35.312)">
			<stop  offset="0" style="stop-color:#189EF2"/>
			<stop  offset="1" style="stop-color:#0035CE"/>
		</linearGradient>
		<path fill="url(#SVGID_5_)" d="M156.9,282.1c13.1,8.7,28.7,13.8,45.6,13.8c16.8,0,32.4-5,45.4-13.7
			c-15.2-21.1-45.6-63.1-45.4-62.9L156.9,282.1z"/>
	</g>
</g> -->
<!--  -->
</svg>
