<?xml version="1.0" encoding="utf-8"?>
<!-- Generator: Adobe Illustrator 17.1.0, SVG Export Plug-In . SVG Version: 6.00 Build 0)  -->
<!DOCTYPE svg PUBLIC "-//W3C//DTD SVG 1.1//EN" "http://www.w3.org/Graphics/SVG/1.1/DTD/svg11.dtd">
<svg version="1.1" id="normes-svg" xmlns="http://www.w3.org/2000/svg" xmlns:xlink="http://www.w3.org/1999/xlink" x="0px" y="0px"
	 viewBox="0 0 400 400" height="400px" enable-background="new 0 0 400 400" xml:space="preserve">
	<g id="traits_norme">
		<path fill="#FFFF55" d="M281.8,194.3c3,7.2,3.4,14.2,3.4,19.4c0,7.5-1,14.8-3,21.9h1.5c1.9-7,2.9-14.4,2.9-21.9
			c0-5.4-0.4-12.6-3.5-20c-3.9-9.7-10.4-19.6-17.8-28.9h-1.8C271,174.4,277.7,184.4,281.8,194.3z"/>
		<path fill="#FFFF55" d="M120.1,213.9c0-6,1.5-12.5,4.3-19.5c3.8-9.2,9.8-19,18-29.4h-1.8c-8,10.2-13.8,19.9-17.6,28.9
			c-2.9,7.2-4.4,13.9-4.4,20c0,7.5,1,14.8,2.9,21.8h1.5C121.1,228.6,120.1,221.3,120.1,213.9z"/>
		<path fill="#FFFF55" d="M167.7,137.7c8.9-8.5,17.5-15.7,24-21v-1.8c-6.7,5.4-15.6,13-25,21.8c-5.1,4.8-9.7,9.5-13.9,14.1h1.9
			C158.7,146.4,163.1,142.1,167.7,137.7z"/>
		<path fill="#FFFF55" d="M248.7,281.9l-1.2,0.8c-10.8,7-23,11.4-35.7,12.8v1.5c13.1-1.4,25.5-5.9,36.5-13.1l0,0l0.6-0.4l0,0l0.6-0.4
			l0,0c12.6-8.5,22.5-20.2,28.9-33.5h-1.6C270.5,262.4,261,273.6,248.7,281.9z"/>
		<path fill="#FFFF55" d="M235.6,135.5c4.8,4.5,10.1,9.6,15.4,15.2h2c-5.6-6-11.2-11.5-16.4-16.2c-8.5-7.9-16.6-14.6-22.7-19.4v1.8
			C219.8,121.6,227.5,128,235.6,135.5z"/>
		<path fill="#FFFF55" d="M157,282.2l-0.5-0.3c-12.3-8.3-21.9-19.5-28.1-32.3h-1.6c6.4,13.5,16.5,25.3,29.3,33.8l0.6,0.4l0,0
			c11.1,7.2,23.7,11.7,36.7,13.1v-1.4C180.5,294,168,289.5,157,282.2z"/>
	</g>
	<g id="sauvegarde" display="none">
	</g>
	<g id="normes">
		<g>
			<g>
				<text transform="matrix(1 0 0 1 140.3115 160.873)" fill="#FFFFFF" font-family="'DINCond-Bold'" font-size="12">&lt; 0,04</text>
			</g>
		</g>
		<g>
			<g>
				<text transform="matrix(1 0 0 1 251.8923 160.8727)" fill="#FFFFFF" font-family="'DINCond-Bold'" font-size="12">0,10</text>
			</g>
		</g>
		<g>
			<g>
				<text transform="matrix(1 0 0 1 258.9549 243.8983)" fill="#FFFFFF" font-family="'MyriadPro-Regular'" font-size="12">≥</text>
				<text transform="matrix(1 0 0 1 263.2743 243.8983)" fill="#FFFFFF" font-family="'DINCond-Bold'" font-size="12"> 180 et </text>
				<text transform="matrix(1 0 0 1 280.6931 243.8983)" fill="#FFFFFF" font-family="'MyriadPro-Regular'" font-size="12">≤</text>
				<text transform="matrix(1 0 0 1 284.9649 243.8983)" fill="#FFFFFF" font-family="'DINCond-Bold'" font-size="12"> 1000</text>
			</g>
		</g>
		<g>
			<g>
				<text transform="matrix(1 0 0 1 109.4267 243.8983)" fill="#FFFFFF" font-family="'MyriadPro-Regular'" font-size="12">≥</text>
				<text transform="matrix(1 0 0 1 113.7461 243.8983)" fill="#FFFFFF" font-family="'DINCond-Bold'" font-size="12"> 6,5 et </text>
				<text transform="matrix(1 0 0 1 129.8962 243.8983)" fill="#FFFFFF" font-family="'MyriadPro-Regular'" font-size="12">≤</text>
				<text transform="matrix(1 0 0 1 134.2155 243.8983)" fill="#FFFFFF" font-family="'DINCond-Bold'" font-size="12"> 9</text>
			</g>
		</g>
		<g>
			<g>
				<text transform="matrix(1 0 0 1 199.2733 299.4148)" fill="#FFFFFF" font-family="'DINCond-Bold'" font-size="12">50</text>
			</g>
		</g>
		<g>
			<g>
				<text transform="matrix(1 0 0 1 193.9362 113.4081)" fill="#FFFF55" font-family="'DINCond-Bold'" font-size="12">NORME</text>
			</g>
		</g>
	</g>
</svg>
